<?xml version="1.0" encoding="iso-8859-1"?>
<!-- Generator: Adobe Illustrator 16.0.0, SVG Export Plug-In . SVG Version: 6.00 Build 0)  -->
<!DOCTYPE svg PUBLIC "-//W3C//DTD SVG 1.1//EN" "http://www.w3.org/Graphics/SVG/1.1/DTD/svg11.dtd">
<svg version="1.1" id="Capa_1" xmlns="http://www.w3.org/2000/svg" xmlns:xlink="http://www.w3.org/1999/xlink" x="0px" y="0px"
	 width="31.242px" height="31.241px" viewBox="0 0 31.242 31.241" style="enable-background:new 0 0 31.242 31.241;"
	 xml:space="preserve">
<g>
	<path d="M19.511,30.993c-0.94,0-4.296-0.255-7.271,0c-2.974,0.255-5.655,0.021-5.662-0.715c-0.002-0.287,0.519-1.309,0.857-2.413
		c0.529-1.72,1.044-3.846,1.704-5.287c1.084-2.363,3.915-5.635,4.118-5.949c0.203-0.312-0.361-1.242-0.44-2.583
		c-0.086-1.436,0.102-2.977-0.17-3.071c-0.526-0.182-2.88,1.572-2.923,1.855c-0.044,0.284,0.83,1.141,0.647,1.194
		c-0.183,0.056-0.572-0.25-0.572-0.25s-0.017,0.255-0.119,0.373c-0.101,0.119-0.523,0.105-0.541-0.033
		c-0.019-0.138-0.076-0.738-0.255-0.831c-0.178-0.094-0.314-0.169-0.318-0.567c-0.004-0.398,0.76-1.472,1.125-1.791
		c0.363-0.319,4.873-2.751,5.092-2.873C15,7.928,14.953,7.919,14.96,7.696c0.009-0.225-0.805,0.147-0.991,0.139
		c-0.187-0.008-0.356-1.079-0.356-1.079S13.178,6.688,13.283,6.5c0.106-0.187,0.298-0.504,0.356-0.725
		c0.06-0.22-0.109-1.128,0.083-1.454c0.181-0.308,0.87-0.697,1.463-0.773c0.592-0.076,0.896-0.009,1.467,0.321
		c0.572,0.33,0.301,1.626,0.598,1.602c0.414-0.034,0.633-1.201,1.025-1.898c0.556-0.985,1.017-1.577,1.017-1.683
		c0-0.181-0.364-0.393-0.479-0.498c-0.114-0.106-0.885-0.175-1.118-0.243c-0.232-0.067-0.062-0.423,0.14-0.432
		c0.202-0.008,0.676-0.025,0.676-0.025s-0.09-0.364-0.205-0.495c-0.113-0.132,0.004-0.272,0.152-0.152
		c0.148,0.119,0.635,0.542,0.902,0.725c0.269,0.182,1.496,0.843,1.527,1.036c0.031,0.191-0.722,0.44-0.775,0.617
		c-0.057,0.178-0.24,0.929-0.616,1.575C19.12,4.644,18.8,5.353,18.648,6.117c-0.152,0.763-0.598,2.444-0.598,2.444
		s-1.314,2.769-1.606,3.352c-0.292,0.582-0.192,2.239-0.01,2.717c0.184,0.479,0.791,1.24,1.451,1.927
		c0.661,0.686,6.342,13.041,6.756,13.396c0.203,0.174-0.944,0.038-1.568,0.253c-0.648,0.226-0.782,0.8-1.145,0.941
		C21.214,31.426,20.452,30.993,19.511,30.993z"/>
</g>
<g>
</g>
<g>
</g>
<g>
</g>
<g>
</g>
<g>
</g>
<g>
</g>
<g>
</g>
<g>
</g>
<g>
</g>
<g>
</g>
<g>
</g>
<g>
</g>
<g>
</g>
<g>
</g>
<g>
</g>
</svg>
