<svg width="122.692" height="122.692" xmlns="http://www.w3.org/2000/svg">
  <path d="M86.777 77.08c-.974-4.99-6.367-4.908-14.547-4.605v-4.66h.003l.043-18.365c0-.114-.02-.223-.023-.335l.028-.014c6.052-2.925 14.12-8.166 14.344-19.84.163-8.61-7.236-14.844-13.195-19.863-1.728-1.455-4.897-4.126-5.442-5.18C67.805 1.84 65.83 0 63.428 0c-.783 0-1.544.2-2.226.587C60.517.2 59.758 0 58.972 0c-2.4 0-4.374 1.84-4.555 4.218-.545 1.052-3.716 3.723-5.454 5.188-5.947 5.01-13.347 11.244-13.184 19.852.225 11.76 6.72 15.822 13.42 19.002l.84.303c-.033.29-.06.583-.06.885v16.614h-.013v7.367c0 1.134.22 2.194.607 3.17-.03.22-.05.44-.05.667l.003 40.436c0 2.755 2.233 4.99 4.99 4.99 2.756 0 4.99-2.235 4.99-4.99v-16.895c.062.07.12.142.188.21.974.97 2.25 1.456 3.524 1.456 1.276 0 2.558-.488 3.53-1.463.044-.044 4.58-4.59 9.02-9.257C86.595 81.43 87.34 79.965 86.777 77.08zM44.915 29.083c-.08-4.25 5.474-8.93 9.936-12.688 2.434-2.05 4.747-3.998 6.352-6 1.604 2 3.917 3.95 6.357 6.007 4.458 3.757 10.01 8.433 9.928 12.68-.134 6.99-2.956 8.55-9.896 11.71l-.526.24s-2.156-.79-3.226-1.052l-2.713 2.73-2.63-2.76-.028.004c-1.027.245-2.036.635-2.987 1.142-7.367-3.34-10.428-4.79-10.568-12.013zM60.69 93.96c-.066.065-.125.136-.185.204V83.002c.197.01.394.024.595.024.168 0 .336-.015.503-.02.248.017.5.024.755.005 3.064-.228 6.442-.42 9.442-.532-3.218 3.452-7.34 7.706-11.11 11.483z"/>
  <path d="M50.238 28.457c0-6.017 4.873-10.89 10.89-10.89s10.89 4.873 10.89 10.89-4.873 10.89-10.89 10.89-10.89-4.873-10.89-10.89z"/>
</svg>