<?xml version="1.0" encoding="iso-8859-1"?>
<!-- Generator: Adobe Illustrator 16.0.4, SVG Export Plug-In . SVG Version: 6.00 Build 0)  -->
<!DOCTYPE svg PUBLIC "-//W3C//DTD SVG 1.1//EN" "http://www.w3.org/Graphics/SVG/1.1/DTD/svg11.dtd">
<svg version="1.1" id="Capa_1" xmlns="http://www.w3.org/2000/svg" xmlns:xlink="http://www.w3.org/1999/xlink" x="0px" y="0px"
	 width="35.103px" height="35.159px" viewBox="0 0 35.103 35.159" style="enable-background:new 0 0 35.103 35.159;"
	 xml:space="preserve">
<path style="fill:#262626;" d="M32.604,14.494l-3.999-1.333l-1.971-4.636l-4.027-1.362l0-0.001l-2.443-5.108L15.443,0L2.908,24.533
	l0.084,0.085c-0.424,0.129-0.863,0.399-1.332,0.868c-2.213,2.214-2.214,5.801,0,8.013c2.212,2.213,5.799,2.213,8.012,0
	c0.47-0.469,0.739-0.909,0.867-1.333l0.031,0.031l24.532-12.538L32.604,14.494z M4.424,24.717l-0.366-0.366l5.518-10.795
	c1.102,2.131,2.292,3.912,3.495,5.396l-6.007,7.917C6.12,25.912,5.276,25.077,4.424,24.717z M13.691,19.693
	c0.42,0.481,0.839,0.936,1.252,1.349c0.271,0.271,0.535,0.522,0.798,0.763l-7.862,5.549L13.691,19.693z M10.751,31.043l-0.31-0.309
	c-0.352-0.831-1.152-1.653-2.08-2.568l8.109-5.719c2.069,1.746,3.892,2.688,4.957,3.143L10.751,31.043z"/>
<g>
</g>
<g>
</g>
<g>
</g>
<g>
</g>
<g>
</g>
<g>
</g>
<g>
</g>
<g>
</g>
<g>
</g>
<g>
</g>
<g>
</g>
<g>
</g>
<g>
</g>
<g>
</g>
<g>
</g>
</svg>
